# Blender 3.3.1
# www.blender.org
mtllib heart.mtl
o Heart
v -0.187932 0.363170 0.050000
v 0.187068 0.359964 0.050000
v -0.149031 0.446431 0.050000
v 0.150568 0.445896 0.050000
v -0.163100 0.226918 0.050000
v 0.000048 0.091735 0.050000
v 0.164637 0.230658 0.050000
v 0.058019 0.466201 0.050000
v -0.000432 0.399945 0.050000
v -0.059844 0.466735 0.050000
v -0.187932 0.363170 -0.050000
v 0.164637 0.230658 -0.050000
v 0.187068 0.361724 -0.050000
v 0.150568 0.447656 -0.050000
v -0.059844 0.466735 -0.050000
v -0.149031 0.446431 -0.050000
v -0.163100 0.226918 -0.050000
v 0.000048 0.091735 -0.050000
v 0.058019 0.466201 -0.050000
v -0.000432 0.399945 -0.050000
v 0.077358 0.505012 -0.000000
v 0.200757 0.479700 -0.000000
v -0.250576 0.367638 -0.000000
v 0.249424 0.365124 -0.000000
v -0.000576 0.416671 -0.000000
v 0.219515 0.190956 -0.000000
v -0.079791 0.505725 -0.000000
v -0.198708 0.478652 -0.000000
v -0.217466 0.185969 -0.000000
v 0.000064 0.005725 -0.000000
vn -0.5878 0.2746 0.7610
vn -0.0000 -0.0000 -1.0000
vn -0.5878 0.2746 -0.7610
vn 0.1529 0.7531 -0.6399
vn -0.7318 0.6456 -0.2181
vn 0.6258 -0.1073 -0.7726
vn 0.7297 0.6491 -0.2150
vn -0.1692 0.7433 -0.6472
vn -0.6247 -0.1139 -0.7725
vn -0.3845 -0.4640 -0.7981
vn 0.3905 -0.4626 -0.7959
vn -0.0000 -0.0000 1.0000
vn 0.3905 -0.4626 0.7959
vn -0.3845 -0.4640 0.7981
vn -0.6247 -0.1139 0.7725
vn -0.1692 0.7433 0.6472
vn 0.7297 0.6491 0.2150
vn 0.6265 -0.1081 0.7719
vn -0.7318 0.6456 0.2181
vn 0.5927 0.2517 0.7651
vn 0.5967 0.2534 -0.7614
vn 0.1572 0.7440 0.6495
vt 0.025029 0.356371
vt 0.100029 0.353197
vt 0.032809 0.438799
vt 0.092729 0.438270
vt 0.029995 0.221482
vt 0.062625 0.087650
vt 0.095542 0.225184
vt 0.074219 0.458371
vt 0.062529 0.392778
vt 0.050646 0.458900
vt 0.025029 0.356371
vt 0.095542 0.225184
vt 0.100029 0.354940
vt 0.092729 0.440012
vt 0.050646 0.458900
vt 0.032809 0.438799
vt 0.029995 0.221481
vt 0.062625 0.087650
vt 0.074219 0.458371
vt 0.062529 0.392778
vt 0.078087 0.496795
vt 0.102767 0.471736
vt 0.012500 0.360795
vt 0.112500 0.358305
vt 0.062500 0.409337
vt 0.106518 0.185879
vt 0.046657 0.497500
vt 0.022874 0.470698
vt 0.019122 0.180942
vt 0.062628 0.002500
s 1
usemtl Material.001
f 23/23/1 1/1/1 3/3/1 28/28/1
f 17/17/2 15/15/2 20/20/2 18/18/2
f 15/15/2 17/17/2 11/11/2 16/16/2
f 28/28/3 16/16/3 11/11/3 23/23/3
f 18/18/2 20/20/2 19/19/2 12/12/2
f 22/22/4 14/14/4 19/19/4 21/21/4
f 21/21/5 19/19/5 20/20/5 25/25/5
f 26/26/6 12/12/6 13/13/6 24/24/6
f 25/25/7 20/20/7 15/15/7 27/27/7
f 12/12/2 19/19/2 14/14/2 13/13/2
f 27/27/8 15/15/8 16/16/8 28/28/8
f 23/23/9 11/11/9 17/17/9 29/29/9
f 29/29/10 17/17/10 18/18/10 30/30/10
f 30/30/11 18/18/11 12/12/11 26/26/11
f 10/10/12 3/3/12 1/1/12 5/5/12
f 6/6/13 30/30/13 26/26/13 7/7/13
f 5/5/12 6/6/12 9/9/12 10/10/12
f 5/5/14 29/29/14 30/30/14 6/6/14
f 1/1/15 23/23/15 29/29/15 5/5/15
f 10/10/16 27/27/16 28/28/16 3/3/16
f 6/6/12 7/7/12 8/8/12 9/9/12
f 9/9/17 25/25/17 27/27/17 10/10/17
f 7/7/12 2/2/12 4/4/12 8/8/12
f 7/7/18 26/26/18 24/24/18 2/2/18
f 8/8/19 21/21/19 25/25/19 9/9/19
f 4/4/20 2/2/20 24/24/20 22/22/20
f 13/13/21 14/14/21 22/22/21 24/24/21
f 4/4/22 22/22/22 21/21/22 8/8/22
